# AST/ASF file generated using VICON BodyLanguage
# -----------------------------------------------
:version 1.10
:name VICON
:units
  mass 1.0
  length 0.45
  angle deg
:documentation
   .ast/.asf automatically generated from VICON data using
   VICON BodyBuilder and BodyLanguage model FoxedUp or BRILLIANT.MOD
:root
   order TX TY TZ RX RY RZ
   axis XYZ
   position 0 0 0  
   orientation 0 0 0 
:bonedata
  begin
     id 1 
     name lhipjoint
     direction 0.693937 -0.600361 0.397515 
     length 2.37164 
     axis 0 0 0  XYZ
  end
  begin
     id 2 
     name lfemur
     direction 0.34202 -0.939693 0  
     length 6.18497  
     axis 0 0 20  XYZ
    dof rx ry rz
    limits (-160.0 20.0)
           (-70.0 70.0)
           (-60.0 70.0)
  end
  begin
     id 3 
     name ltibia
     direction 0.34202 -0.939693 0   
     length 6.91601   
     axis 0 0 20   XYZ
    dof rx
    limits (-10.0 170.0)
  end
  begin
     id 4 
     name lfoot
     direction 0.0978718 -0.2689 0.958182   
     length 1.81453   
     axis -90 7.62852e-016 20   XYZ
    dof rx rz
    limits (-45.0 90.0)
           (-70.0 20.0)
  end
  begin
     id 5 
     name ltoes
     direction 1.53569e-011 -4.21951e-011 1   
     length 0.912052   
     axis -90 7.62852e-016 20   XYZ
    dof rx
    limits (-90.0 20.0)
  end
  begin
     id 6 
     name rhipjoint
     direction -0.643996 -0.637876 0.422354   
     length 2.23216  
     axis 0 0 0  XYZ 
  end
  begin
     id 7 
     name rfemur
     direction -0.34202 -0.939693 0   
     length 6.15404   
     axis 0 0 -20   XYZ
    dof rx ry rz
    limits (-160.0 20.0)
           (-70.0 70.0)
           (-70.0 60.0)
  end
  begin
     id 8 
     name rtibia
     direction -0.34202 -0.939693 0   
     length 6.86744   
     axis 0 0 -20   XYZ
    dof rx
    limits (-10.0 170.0)
 end
 begin
     id 9 
     name rfoot
     direction -0.118701 -0.326127 0.937844   
     length 1.9243  
     axis -90 -7.62852e-016 -20   XYZ
    dof rx rz
    limits (-45.0 90.0)
           (-20.0 70.0)
  end
  begin
     id 10 
     name rtoes
     direction -1.5356e-011 -4.2181e-011 1   
     length 0.958865   
     axis -90 -7.62852e-016 -20   XYZ
    dof rx
    limits (-90.0 20.0)
  end
  begin
     id 11 
     name lowerback
     direction 0.0310826 0.968686 -0.246334   
     length 2.00021   
     axis 0 0 0   XYZ
    dof rx ry rz
    limits (-20.0 45.0)
           (-30.0 30.0)
           (-30.0 30.0)
  end
  begin
     id 12 
     name upperback
     direction -0.0152834 0.999474 -0.0286152   
     length 2.03728   
     axis 0 0 0   XYZ
    dof rx ry rz
    limits (-20.0 45.0)
           (-30.0 30.0)
           (-30.0 30.0)
  end
  begin
     id 13 
     name thorax
     direction -0.0323701 0.996236 0.0804149   
     length 2.16   
     axis 0 0 0   XYZ
    dof rx ry rz
    limits (-20.0 45.0)
           (-30.0 30.0)
           (-30.0 30.0)
  end
  begin
     id 14 
     name lowerneck
     direction 0.0307935 0.982251 0.185027   
     length 1.43558   
     axis 0 0 0   XYZ
    dof rx ry rz
    limits (-20.0 45.0)
           (-30.0 30.0)
           (-30.0 30.0)
  end
  begin
     id 15 
     name upperneck
     direction -0.0927153 0.994775 0.0427454   
     length 1.44603   
     axis 0 0 0   XYZ
    dof rx ry rz
    limits (-20.0 45.0)
           (-30.0 30.0)
           (-30.0 30.0)
  end
  begin
     id 16
     name head
     direction -0.0341265 0.999406 -0.00472033  
     length 1.45931  
     axis 0 0 0   XYZ
    dof rx ry rz
    limits (-20.0 45.0)
           (-30.0 30.0)
           (-30.0 30.0)
  end
  begin
     id 17 
     name lclavicle
     direction 0.820755 0.555306 -0.134151  
     length 2.66075  
     axis 0 0 0   XYZ
    dof ry rz
    limits (-20.0 10.0)
           (0.0 20.0)
  end
  begin
     id 18 
     name lhumerus
     direction 1 -4.48971e-011 5.24853e-027   
     length 5.0546   
     axis -180 -30 -90   XYZ
    dof rx ry rz
    limits (-60.0 90.0)
           (-90.0 90.0)
           (-90.0 90.0)
  end
  begin
     id 19
     name lradius
     direction 1 -4.48971e-011 2.76575e-028   
     length 3.39013   
     axis -180 -30 -90   XYZ
    dof rx
    limits (-10.0 170.0)
  end
  begin
     id 20
     name lwrist
     direction 1 -4.48939e-011 -2.27826e-027   
     length 1.69507   
     axis 2.17013e-015 90 90   XYZ
    dof ry
    limits (-180.0 0.0)
 end
  begin
     id 21 
     name lhand
     direction 1 -4.49009e-011 -4.55652e-027   
     length 0.572425   
     axis 2.90745e-015 90 90   XYZ
    dof rx rz
    limits (-90.0 90.0)
           (-45.0 45.0)
  end
  begin
     id 22 
     name lfingers
     direction 1 -4.48955e-011 -9.11303e-027   
     length 0.461504   
     axis 5.81489e-015 90 90   XYZ
    dof rx
    limits (0.0 90.0)
  end
  begin
     id 23
     name lthumb
     direction 0.707107 -6.34929e-011 0.707107   
     length 0.66263   
     axis -90 45 2.85299e-015   XYZ
    dof rx rz
    limits (-45.0 45.0)
           (-45.0 45.0)
  end
  begin
     id 24 
     name rclavicle
     direction -0.754477 0.632921 -0.173712   
     length 2.73081  
     axis 0 0 0   XYZ 
    dof ry rz
    limits (-10.0 20.0)
           (-20.0 0.0)
  end
  begin
     id 25 
     name rhumerus
     direction -1 -4.48969e-011 5.1496e-027  
     length 5.0701   
     axis -180 30 90   XYZ
    dof rx ry rz
    limits (-90.0 60.0)
           (-90.0 90.0)
           (-90.0 90.0)
  end
  begin
     id 26 
     name rradius
     direction -1 -4.48967e-011 -7.15624e-028   
     length 3.14957   
     axis -180 30 90   XYZ
    dof rx
    limits (-10.0 170.0)
  end
  begin
     id 27 
     name rwrist
     direction -1 -4.48938e-011 -2.27826e-027   
     length 1.57479   
     axis 2.17013e-015 -90 -90   XYZ
    dof ry
    limits (-180.0 0.0)
  end
  begin
     id 28
     name rhand
     direction -1 -4.49008e-011 -4.55652e-027   
     length 0.718191   
     axis 2.90745e-015 -90 -90   XYZ
    dof rx rz
    limits (-90.0 90.0)
           (-45.0 45.0)
  end
  begin
     id 29
     name rfingers
     direction -1 -4.48953e-011 -9.11303e-027   
     length 0.579024   
     axis 5.81489e-015 -90 -90   XYZ
    dof rx
    limits (0.0 90.0)
  end
  begin
     id 30
     name rthumb
     direction -0.707107 -6.34937e-011 0.707107   
     length 0.831366   
     axis -90 -45 -2.85299e-015   XYZ
    dof rx rz
    limits (-45.0 45.0)
           (-45.0 45.0)
  end
:hierarchy
  begin
    root lhipjoint rhipjoint lowerback
    lhipjoint lfemur
    lfemur ltibia
    ltibia lfoot
    lfoot ltoes
    rhipjoint rfemur
    rfemur rtibia
    rtibia rfoot
    rfoot rtoes
    lowerback upperback
    upperback thorax
    thorax lowerneck lclavicle rclavicle
    lowerneck upperneck
    upperneck head
    lclavicle lhumerus
    lhumerus lradius
    lradius lwrist
    lwrist lhand lthumb
    lhand lfingers
    rclavicle rhumerus
    rhumerus rradius
    rradius rwrist
    rwrist rhand rthumb
    rhand rfingers
  end

#!OML:ASF H:\Male1\Project 1\Capture day 1\Session 1\Male1.ASF
:FULLY-SPECIFIED
:DEGREES
101
root 26.3133 15.3052 -0.538871 6.33061 -35.3168 -1.64981
lowerback 19.3114 2.88562 0.0558726
upperback 12.9582 3.36103 0.564478
thorax 3.18067 1.51096 0.0220443
lowerneck -10.1994 -6.39521 0.325238
upperneck 3.79893 -9.67098 14.0376
head 3.5229 -4.23985 3.59773
rclavicle -1.08735e-013 8.0309e-014
rhumerus -18.8138 55.7794 -89.6972
rradius 83.0497
rwrist -77.4358
rhand -36.5921 -27.1078
rfingers 7.12502
rthumb -9.68108 -56.8653
lclavicle -1.08735e-013 8.0309e-014
lhumerus -63.0489 -23.4707 85.789
lradius 115.269
lwrist 18.8596
lhand -17.9184 34.8015
lfingers 7.12502
lthumb 8.3491 64.6165
rfemur -28.965 -12.6749 27.4703
rtibia 55.2896
rfoot -16.4123 -18.2254
rtoes -30.499
lfemur -23.3866 -6.08455 -21.6919
ltibia 35.5157
lfoot -20.4937 9.77292
ltoes 3.31836
102
root 26.284 15.3164 -0.532187 6.50763 -34.8501 -1.63022
lowerback 19.4744 2.94513 -0.200762
upperback 13.0554 3.39712 0.773914
thorax 3.1782 1.50286 0.376915
lowerneck -10.0939 -6.50085 -0.0654221
upperneck 3.55404 -9.75648 14.3953
head 3.47697 -4.29228 3.76663
rclavicle 1.55052e-014 -1.09332e-014
rhumerus -18.3691 55.4368 -88.947
rradius 82.8237
rwrist -77.8554
rhand -36.5564 -27.2189
rfingers 7.12502
rthumb -9.64668 -56.978
lclavicle 1.55052e-014 -1.09332e-014
lhumerus -62.8148 -23.2812 86.7123
lradius 114.868
lwrist 18.2436
lhand -17.3029 35.0812
lfingers 7.12502
lthumb 8.94305 64.8717
rfemur -29.9117 -13.4518 27.1918
rtibia 56.0524
rfoot -16.5513 -18.1265
rtoes -30.6628
lfemur -23.4298 -5.525 -21.6356
ltibia 35.2555
lfoot -20.2324 8.98211
ltoes 2.44213
103
root 26.2508 15.3301 -0.52635 6.69107 -34.4461 -1.66472
lowerback 19.6674 3.04025 -0.430395
upperback 13.1333 3.48229 1.02731
thorax 3.13766 1.51898 0.753394
lowerneck -9.9672 -6.60781 -0.424875
upperneck 3.32893 -9.84376 14.6898
head 3.42925 -4.34712 3.91205
rclavicle 4.57205e-015 1.86858e-014
rhumerus -17.7477 54.8389 -88.0244
rradius 82.3444
rwrist -78.4071
rhand -36.3356 -27.3632
rfingers 7.12502
rthumb -9.43364 -57.1321
lclavicle 4.57205e-015 1.86858e-014
lhumerus -62.0403 -23.2779 87.6591
lradius 114.02
lwrist 17.4171
lhand -16.4383 34.9083
lfingers 7.12502
lthumb 9.77731 64.6613
rfemur -30.6938 -14.0502 26.9123
rtibia 56.4298
rfoot -16.8941 -18.4318
rtoes -30.9813
lfemur -23.4171 -4.98127 -21.5219
ltibia 34.9745
lfoot -20.0171 8.25775
ltoes 1.63575
104
root 26.2136 15.3457 -0.520535 6.86301 -34.1314 -1.73101
lowerback 19.8683 3.12139 -0.685867
upperback 13.2111 3.54362 1.31934
thorax 3.08892 1.51911 1.18893
lowerneck -9.85822 -6.672 -0.900359
upperneck 3.16054 -9.86764 14.9853
head 3.40283 -4.36797 4.08006
rclavicle 1.55052e-014 -1.74931e-014
rhumerus -16.86 54.1753 -86.8936
rradius 81.6023
rwrist -79.0867
rhand -36.0363 -27.5384
rfingers 7.12502
rthumb -9.14481 -57.3201
lclavicle 1.55052e-014 -1.74931e-014
lhumerus -60.7183 -23.2521 88.5838
lradius 112.738
lwrist 16.383
lhand -15.5567 34.4713
lfingers 7.12502
lthumb 10.6278 64.1825
rfemur -31.3006 -14.4364 26.5941
rtibia 56.4251
rfoot -17.3169 -18.9961
rtoes -31.2763
lfemur -23.3344 -4.449 -21.3727
ltibia 34.6712
lfoot -19.8924 7.58189
ltoes 1.2557
105
root 26.1735 15.3619 -0.51405 7.00898 -33.9059 -1.79942
lowerback 20.0671 3.21791 -0.860547
upperback 13.2848 3.63575 1.56111
thorax 3.04361 1.54183 1.52093
lowerneck -9.76174 -6.7389 -1.28853
upperneck 3.00764 -9.90926 15.2784
head 3.38078 -4.39524 4.23189
rclavicle -5.52621e-014 5.28767e-014
rhumerus -15.7578 53.2218 -85.7028
rradius 80.5667
rwrist -79.7574
rhand -35.816 -27.7226
rfingers 7.12502
rthumb -8.93229 -57.5135
lclavicle -5.52621e-014 5.28767e-014
lhumerus -58.8423 -23.4675 89.3572
lradius 111.061
lwrist 15.2733
lhand -14.7564 33.975
lfingers 7.12502
lthumb 11.3997 63.6451
rfemur -31.7421 -14.5934 26.1943
rtibia 56.0591
rfoot -17.7537 -19.6552
rtoes -31.3012
lfemur -23.1863 -3.94984 -21.2153
ltibia 34.3529
lfoot -19.8255 6.97259
ltoes 1.21085
106
root 26.1318 15.3776 -0.506573 7.13083 -33.7349 -1.85403
lowerback 20.2429 3.29386 -0.939085
upperback 13.3581 3.71556 1.74324
thorax 3.01873 1.5669 1.73903
lowerneck -9.68089 -6.80285 -1.6157
upperneck 2.87556 -9.96043 15.5953
head 3.36747 -4.42404 4.3801
rclavicle 5.1684e-015 8.34896e-015
rhumerus -14.4381 52.0376 -84.4784
rradius 79.2089
rwrist -80.2419
rhand -35.782 -27.8613
rfingers 7.12502
rthumb -8.89944 -57.6537
lclavicle 5.1684e-015 8.34896e-015
lhumerus -56.4507 -23.8855 89.959
lradius 109.019
lwrist 14.1882
lhand -14.2957 33.7384
lfingers 7.12502
lthumb 11.844 63.3835
rfemur -32.0455 -14.5323 25.6867
rtibia 55.3501
rfoot -18.1807 -20.2819
rtoes -30.9593
lfemur -22.9993 -3.5255 -21.0624
ltibia 34.031
lfoot -19.718 6.48198
ltoes 0.902917
107
root 26.0898 15.3921 -0.497702 7.23572 -33.5852 -1.88986
lowerback 20.3703 3.33277 -0.927403
upperback 13.4354 3.76189 1.88337
thorax 3.03171 1.58253 1.87028
lowerneck -9.60844 -6.8692 -1.89662
upperneck 2.74778 -10.0238 15.9359
head 3.35773 -4.45722 4.52713
rclavicle 2.90226e-014 -3.45885e-014
rhumerus -12.9228 50.6843 -83.2095
rradius 77.5342
rwrist -80.3695
rhand -35.9518 -27.8722
rfingers 7.12502
rthumb -9.06328 -57.6575
lclavicle 2.90226e-014 -3.45885e-014
lhumerus -53.5991 -24.5085 90.4434
lradius 106.631
lwrist 13.1366
lhand -14.2311 33.8953
lfingers 7.12502
lthumb 11.9062 63.5367
rfemur -32.2251 -14.2924 25.0713
rtibia 54.3214
rfoot -18.5737 -20.8098
rtoes -30.352
lfemur -22.7977 -3.19626 -20.9182
ltibia 33.7157
lfoot -19.644 6.04447
ltoes 0.919973
108
root 26.0484 15.4052 -0.487957 7.31824 -33.4144 -1.8981
lowerback 20.4544 3.34874 -0.818456
upperback 13.5075 3.79514 1.99557
thorax 3.0686 1.59946 1.92159
lowerneck -9.51072 -6.96302 -2.0269
upperneck 2.57222 -10.1313 16.2286
head 3.3237 -4.51642 4.63346
rclavicle 8.15017e-014 -3.61788e-014
rhumerus -11.3046 49.0399 -81.9915
rradius 75.5012
rwrist -79.9692
rhand -36.1881 -27.7555
rfingers 7.12502
rthumb -9.29134 -57.5307
lclavicle 8.15017e-014 -3.61788e-014
lhumerus -50.3191 -25.4472 90.8396
lradius 103.865
lwrist 12.2114
lhand -14.3017 34.1854
lfingers 7.12502
lthumb 11.8382 63.8308
rfemur -32.2829 -13.9111 24.3459
rtibia 52.9965
rfoot -18.9081 -21.2453
rtoes -29.6296
lfemur -22.5955 -2.97893 -20.7903
ltibia 33.4114
lfoot -19.5343 5.67874
ltoes 0.858229
109
root 26.0077 15.417 -0.477924 7.37771 -33.2018 -1.87718
lowerback 20.4915 3.35436 -0.558695
upperback 13.5778 3.84 2.05672
thorax 3.13936 1.63487 1.83442
lowerneck -9.37364 -7.12271 -2.02146
upperneck 2.32669 -10.337 16.5764
head 3.26882 -4.62747 4.72914
rclavicle -7.95139e-016 -2.46493e-014
rhumerus -9.65541 47.0035 -80.8938
rradius 73.1358
rwrist -79.097
rhand -36.3448 -27.5715
rfingers 7.12502
rthumb -9.44247 -57.34
lclavicle -7.95139e-016 -2.46493e-014
lhumerus -46.6425 -26.8305 91.0956
lradius 100.716
lwrist 11.4782
lhand -14.4587 34.5439
lfingers 7.12502
lthumb 11.6868 64.1979
rfemur -32.2172 -13.4038 23.5188
rtibia 51.4088
rfoot -19.1532 -21.6511
rtoes -28.9383
lfemur -22.3994 -2.85673 -20.6814
ltibia 33.1156
lfoot -19.4301 5.32798
ltoes 1.03881
110
root 25.9662 15.4278 -0.468658 7.38772 -32.9492 -1.81757
lowerback 20.4926 3.39751 -0.393282
upperback 13.6646 3.91875 2.2384
thorax 3.23143 1.67567 1.92476
lowerneck -9.24741 -7.34187 -2.03878
upperneck 2.03742 -10.6089 16.8787
head 3.20811 -4.77548 4.80955
rclavicle 8.34896e-015 -3.02153e-014
rhumerus -7.99421 44.7507 -79.6449
rradius 70.5543
rwrist -78.0176
rhand -36.3374 -27.4205
rfingers 7.12502
rthumb -9.43535 -57.1893
lclavicle 8.34896e-015 -3.02153e-014
lhumerus -42.5666 -28.4585 91.4299
lradius 97.1062
lwrist 10.9163
lhand -14.4035 34.6519
lfingers 7.12502
lthumb 11.7401 64.303
rfemur -32.0011 -12.7669 22.5902
rtibia 49.6011
rfoot -19.311 -22.078
rtoes -28.1634
lfemur -22.1835 -2.79111 -20.6006
ltibia 32.8231
lfoot -19.3112 4.99158
ltoes 1.13668
111
root 25.9236 15.4375 -0.460155 7.34983 -32.6676 -1.7116
lowerback 20.5099 3.48643 0.00840186
upperback 13.7293 4.09464 2.29125
thorax 3.31309 1.78829 1.72791
lowerneck -9.13228 -7.67212 -1.74863
upperneck 1.67225 -11.0563 17.2226
head 3.13087 -5.01176 4.84046
rclavicle 3.97569e-015 4.92986e-014
rhumerus -6.52963 41.8303 -78.7323
rradius 67.7876
rwrist -76.8756
rhand -36.1273 -27.3535
rfingers 7.12502
rthumb -9.23261 -57.1313
lclavicle 3.97569e-015 4.92986e-014
lhumerus -38.1363 -30.7684 91.4566
lradius 93.0861
lwrist 10.5789
lhand -14.0013 34.3716
lfingers 7.12502
lthumb 12.1279 64.0001
rfemur -31.6475 -12.0046 21.5673
rtibia 47.6239
rfoot -19.3717 -22.5398
rtoes -27.1449
lfemur -21.951 -2.75354 -20.5566
ltibia 32.5311
lfoot -19.1718 4.66144
ltoes 1.06015
112
root 25.8798 15.4456 -0.452779 7.26322 -32.3552 -1.56598
lowerback 20.5327 3.56066 0.503675
upperback 13.7921 4.26646 2.29764
thorax 3.4036 1.90813 1.43079
lowerneck -9.03497 -8.0472 -1.39922
upperneck 1.2707 -11.5658 17.6135
head 3.05201 -5.28056 4.87175
rclavicle 3.26007e-014 -1.74931e-014
rhumerus -5.10533 38.6506 -77.9198
rradius 64.8977
rwrist -75.884
rhand -35.7452 -27.3718
rfingers 7.12502
rthumb -8.86397 -57.1657
lclavicle 3.26007e-014 -1.74931e-014
lhumerus -33.3582 -33.3242 91.2364
lradius 88.6288
lwrist 10.3352
lhand -13.3502 33.796
lfingers 7.12502
lthumb 12.7556 63.3864
rfemur -31.1614 -11.1192 20.4697
rtibia 45.526
rfoot -19.3135 -23.0748
rtoes -25.7451
lfemur -21.7031 -2.73904 -20.5432
ltibia 32.2466
lfoot -19.033 4.30595
ltoes 1.04562
113
root 25.8345 15.4523 -0.446873 7.14363 -32.0117 -1.39906
lowerback 20.5661 3.62299 1.15013
upperback 13.8434 4.4476 2.21764
thorax 3.49942 2.0482 0.956524
lowerneck -8.9259 -8.47363 -0.919654
upperneck 0.819215 -12.1492 18.0521
head 2.95928 -5.59051 4.89321
rclavicle 7.87187e-014 -6.36111e-015
rhumerus -3.73705 35.1443 -77.2796
rradius 61.9263
rwrist -74.987
rhand -35.2428 -27.4603
rfingers 7.12502
rthumb -8.37914 -57.2741
lclavicle 7.87187e-014 -6.36111e-015
lhumerus -28.2686 -36.183 90.6915
lradius 83.7845
lwrist 10.1753
lhand -12.8981 33.2869
lfingers 7.12502
lthumb 13.1914 62.8496
rfemur -30.561 -10.0843 19.329
rtibia 43.3575
rfoot -19.1591 -23.7561
rtoes -23.9101
lfemur -21.4518 -2.74371 -20.5411
ltibia 31.9793
lfoot -18.8722 3.93693
ltoes 0.921615
114
root 25.7868 15.4566 -0.443151 7.01957 -31.6404 -1.22087
lowerback 20.5796 3.67148 1.80504
upperback 13.8754 4.61387 2.13894
thorax 3.59103 2.18269 0.483338
lowerneck -8.83636 -8.8942 -0.38924
upperneck 0.385891 -12.7218 18.4092
head 2.86411 -5.89764 4.88357
rclavicle 3.65764e-014 -4.77083e-015
rhumerus -2.36453 31.5159 -76.6688
rradius 58.9049
rwrist -74.0604
rhand -34.6892 -27.5314
rfingers 7.12502
rthumb -7.84479 -57.3659
lclavicle 3.65764e-014 -4.77083e-015
lhumerus -22.9315 -39.146 89.9314
lradius 78.6084
lwrist 10.1128
lhand -12.7728 32.9563
lfingers 7.12502
lthumb 13.3122 62.5111
rfemur -29.8918 -8.85052 18.1664
rtibia 41.1683
rfoot -19.034 -24.6448
rtoes -21.5868
lfemur -21.2284 -2.75587 -20.5331
ltibia 31.7413
lfoot -18.6774 3.55147
ltoes 0.59923
115
root 25.7355 15.4578 -0.441697 6.84761 -31.2527 -1.00204
lowerback 20.6054 3.66885 2.37725
upperback 13.8946 4.70279 2.07379
thorax 3.65846 2.27264 0.0829492
lowerneck -8.73857 -9.25843 0.0585667
upperneck -0.00859605 -13.2075 18.7172
head 2.77124 -6.16334 4.88011
rclavicle -1.43125e-014 -1.98785e-014
rhumerus -0.896543 27.9765 -76.0409
rradius 55.8529
rwrist -72.9516
rhand -34.1554 -27.5197
rfingers 7.12502
rthumb -7.32956 -57.3727
lclavicle -1.43125e-014 -1.98785e-014
lhumerus -17.3994 -42.0436 88.9549
lradius 73.1978
lwrist 10.1954
lhand -13.0929 33.041
lfingers 7.12502
lthumb 13.0037 62.6158
rfemur -29.1453 -7.4092 16.9697
rtibia 39.0222
rfoot -19.079 -25.7589
rtoes -19.0035
lfemur -21.0001 -2.77814 -20.5431
ltibia 31.5433
lfoot -18.4873 3.13509
ltoes 0.285995
